#!OML:ASF F:\VICON\USERDATA\INSTALL\rory3\rory3.ASF
:FULLY-SPECIFIED
:DEGREES
90
root -0.17867411946591477 17.64490534040626 20.746509887110562 4.441083828593369 -0.546937444149612 -6.979426539625387
lfemur -31.111181904261624 10.422281743124802 -6.563842539690032
ltibia 91.31977459387913
lfoot 1.0140301975463915 -11.221333308844994
ltoes -14.471734793149587
rfemur -18.457162273782398 2.3398768119599715 35.24994939228115
rtibia 50.1175286219232
rfoot -25.866051996447588 -25.467020964772697
rtoes -20.092075648806425
lowerback nan -0.543096899063981 3.840314816850874
upperback -0.35054719274064505 0.8114213192119076 3.183648807388202
thorax -9.023697349152092 0.7880501358735882 0.38666567779481303
lowerneck -24.25668471966438 -3.812804242706114 -1.1270830628097666
upperneck 11.206429308744406 -5.505614753886141 2.511191077530761
head 7.720753319351197 -2.0586838982773235 0.3040886199493201
lclavicle -1.957949543791072e-14 -3.6838204467445644e-14
lhumerus -61.52378942018693 -10.612186627405618 98.99750826590581
lradius 97.24975107985554
lwrist 29.437224331760653
lhand -25.218394799893613 0.5938843097223496
lfingers nan
lthumb 1.2611334286260079 30.31532729009825
rclavicle -1.1361988623595838e-14 -3.246624666080512e-14
rhumerus -38.30347244590109 8.74467712721582 -93.63723447583922
rradius 113.55986604836127
rwrist -22.744777966138432
rhand -16.70583392304764 nan
rfingers nan
rthumb 9.58372874699177 8.746546258841828
91
root -0.14074000372047357 17.688139566565876 21.3160539494827 4.341639074731821 0.3801682106552985 -6.776528761881495
lfemur -33.778553496019896 9.863954981826652 -7.331415404142602
ltibia 90.96577499168302
lfoot -0.6211672631606857 -10.442842027992583
ltoes -16.580173026663022
rfemur -16.20469161997679 1.7666273635720868 35.27166015057554
rtibia 48.99620172013445
rfoot -25.34375085399667 -24.521144158166802
rtoes -22.914682343678653
lowerback nan -0.6670631410206943 4.2486037876009926
upperback -0.36050361337209913 0.8486074554863066 3.0253452930224825
thorax -8.73939464602491 0.7539478106127272 -0.06238470318064737
lowerneck -24.309696440959478 -3.9621117784869555 -1.2152767844368477
upperneck 11.43442244647433 -5.702355789684981 2.547478390971527
head 7.802564488721918 -2.1830696705705197 0.2826646912217783
lclavicle -2.1404679397945957e-14 -3.373804504716531e-14
lhumerus -62.887135617313675 -10.677038198608015 99.0129318704659
lradius 98.18964360932245
lwrist 30.24145854489877
lhand -24.95401595634186 0.8285460921770385
lfingers nan
lthumb 1.5130486920826935 30.526151829733436
rclavicle -1.3110713312151443e-14 -2.9295385438123656e-14
rhumerus -38.380462758370456 8.66105968919653 -93.87448807675405
rradius 115.30812090540573
rwrist -22.863208323835696
rhand -16.677867434243637 nan
rfingers nan
rthumb 9.607091281802484 9.456770337130795
92
root -0.1014569122665218 17.744953762110605 21.567337899709386 4.358007710699082 1.4493638977669725 -6.461059717466569
lfemur -36.466335401975854 9.096782486988552 -8.267413316253588
ltibia 90.18128452189784
lfoot -3.3274664337800437 -9.037297715495075
ltoes -20.65167699946089
rfemur -14.022210238185615 0.947028865322493 35.20100624686195
rtibia 47.7742214077161
rfoot -24.454525648927426 -23.490250443510586
rtoes -25.2836959927825
lowerback nan -0.7591023667228624 4.75684342416622
upperback -0.6795108026089983 0.9508794082961328 2.602580802190807
thorax -8.704794217372276 0.7303489557865129 -0.7707498303053024
lowerneck -23.618968508350534 -4.161562250338777 -0.9875577689670738
upperneck 11.480836637521715 -6.062064793063243 2.5812430243369646
head 7.755491308937366 -2.3634084972294005 0.22468323348942176
lclavicle -1.3462654453194904e-14 -2.4049144324966818e-14
lhumerus -64.3718465930234 -11.078628095815057 98.99268739287561
lradius 98.96504711944455
lwrist 30.4969904668748
lhand -24.853992833485396 -0.22703558208091157
lfingers nan
lthumb 1.6048030637005972 29.432161763808868
rclavicle -5.524752849779544e-15 -1.9574766117123023e-14
rhumerus -37.35241867382328 9.212217366598754 -93.84353447870427
rradius 115.95734797314694
rwrist -23.38429445228123
rhand -17.475208834924327 nan
rfingers nan
rthumb 8.848983396400532 9.714051472961383
93
root -0.05948169562766098 17.81198251858406 21.88595197590805 4.32883964012901 2.037869555223991 -6.424812508053055
lfemur -38.791069737499484 8.815322974354853 -8.906382742621041
ltibia 88.9592532334163
lfoot -2.899360743333995 -8.381031094325975
ltoes -14.121916848035351
rfemur -11.743470564887387 0.5718754891642718 35.30125259025093
rtibia 46.4216807773839
rfoot -23.07561311987156 -22.252518313882103
rtoes -26.95042759488235
lowerback nan -0.7467897333864634 5.299747729567029
upperback -1.0086801036321795 1.2219179681489836 2.326174420345804
thorax -8.935963788705779 0.7856863004528577 -1.3961461540013087
lowerneck -22.923281286231962 -4.34676626050553 -0.9005931595483463
upperneck 11.303486078226259 -6.312605495709907 2.5553271793552685
head 7.637128128264019 -2.517878281912217 0.16851374030131894
lclavicle -3.217388169216198e-14 -4.1079536253288976e-14
lhumerus -65.83368612495403 -11.073882751459227 98.95549041969507
lradius 99.80571990840266
lwrist 30.41765554733773
lhand -24.987430564569895 -1.0720051106693995
lfingers nan
lthumb 1.4707498082408634 28.57771265394641
rclavicle -2.3330680630174432e-14 -3.606510523802599e-14
rhumerus -37.784064387302024 8.918565642889114 -94.16806823418337
rradius 117.34332310024905
rwrist -22.75944283401798
rhand -17.02632366042836 nan
rfingers nan
rthumb 9.290947393686604 9.636520243202563
